Patient4_TMGait_0pt4_03_left_04_GRF.mot
version=1
nRows=52
nColumns=19
inDegrees=no
endheader
time	F1x	F1y	F1z	M1x	M1y	M1z	F2x	F2y	F2z	M2x	M2y	M2z	EC1x	EC1y	EC1z	EC2x	EC2y	EC2z
4.81	21.4776	-7.3496	2.7125	1.2898	0.47079	0.98393	-29.382	733.5161	-78.5018	270.6835	92.1324	781.5472	-0.0592	0.0182	-0.0073	-0.0462	0.0165	0.9585
4.8229	14.374	-4.4006	1.9388	0.66472	0.15501	1.1625	-29.9509	718.7321	-72.6977	265.4266	86.4938	765.9623	-0.0592	0.0182	-0.0073	-0.0462	0.0165	0.9585
4.8359	8.3762	-1.8605	1.2757	0.12716	-0.099072	1.3918	-29.5488	705.7324	-67.4612	260.7857	80.9461	751.2212	-0.0592	0.0182	-0.0073	-0.0462	0.0165	0.9585
4.8488	3.8175	0.12688	0.75827	-0.29766	-0.282	1.6582	-28.1681	696.406	-63.1837	257.4657	75.8773	739.2339	-0.0592	0.0182	-0.0073	-0.0462	0.0165	0.9585
4.8617	0.67877	1.5426	0.39486	-0.60847	-0.40564	1.9136	-25.9582	692.0405	-60.0177	255.9609	71.5098	731.4003	-0.0592	0.0182	-0.0073	-0.0462	0.0165	0.9585
4.8746	-1.2627	2.4528	0.16253	-0.81617	-0.48381	2.1357	-23.0934	693.2128	-57.9225	256.5057	67.8907	728.4265	-0.0592	0.0182	-0.0073	-0.0462	0.0165	0.9585
4.8876	-2.2962	2.9414	0.042025	-0.93218	-0.53863	2.2911	-19.754	699.7578	-56.7692	259.0563	64.9752	730.2782	-0.0592	0.0182	-0.0073	-0.0462	0.0165	0.9585
4.9005	-2.7085	3.0861	0.0044224	-0.96468	-0.58042	2.3371	-16.1027	710.8117	-56.3567	263.3073	62.6335	736.1949	-0.0592	0.0182	-0.0073	-0.0462	0.0165	0.9585
4.9134	-2.7555	2.9249	0.028285	-0.91044	-0.62681	2.2133	-12.2643	724.9795	-56.4961	268.7419	60.7341	744.8907	-0.0592	0.0182	-0.0073	-0.0462	0.0165	0.9585
4.9264	-2.6158	2.4562	0.095376	-0.75703	-0.68858	1.834	-8.3519	740.4905	-56.9905	274.693	59.1367	754.7137	-0.0592	0.0182	-0.0073	-0.0462	0.0165	0.9585
4.9393	-2.4264	1.6633	0.19947	-0.48985	-0.78201	1.1281	-4.4779	755.429	-57.6855	280.4324	57.7394	763.8827	-0.0592	0.0182	-0.0073	-0.0462	0.0165	0.9585
4.9522	-2.2419	0.49024	0.33037	-0.085979	-0.90425	-0.01436	-0.71426	768.0689	-58.4347	285.2922	56.442	770.8232	-0.0592	0.0182	-0.0073	-0.0462	0.0165	0.9585
4.9651	-2.091	-1.0911	0.46789	0.4675	-1.0382	-1.6376	2.8775	777.0464	-59.1364	288.738	55.1851	774.326	-0.0592	0.0182	-0.0073	-0.0462	0.0165	0.9585
4.9781	-1.9315	-3.0564	0.58683	1.163	-1.1412	-3.7265	6.2264	781.4702	-59.7282	290.4118	53.9472	773.6477	-0.0592	0.0182	-0.0073	-0.0462	0.0165	0.9585
4.991	-1.7006	-5.2727	0.64733	1.9499	-1.1476	-6.1336	9.2989	781.0266	-60.2165	290.1714	52.7604	768.5965	-0.0592	0.0182	-0.0073	-0.0462	0.0165	0.9585
5.0039	-1.3083	-7.4212	0.5915	2.7091	-0.95862	-8.504	12.0609	776.0106	-60.6325	288.1133	51.6762	759.5464	-0.0592	0.0182	-0.0073	-0.0462	0.0165	0.9585
5.0169	-0.61992	-8.9051	0.34118	3.2218	-0.43959	-10.1743	14.483	767.3025	-61.0154	284.5661	50.7472	747.4087	-0.0592	0.0182	-0.0073	-0.0462	0.0165	0.9585
5.0298	0.49541	-8.7988	-0.2017	3.1515	0.56693	-10.0987	16.596	756.2083	-61.3801	280.0298	49.9779	733.4624	-0.0592	0.0182	-0.0073	-0.0462	0.0165	0.9585
5.0427	2.1692	-5.7852	-1.1422	2.0209	2.2248	-6.8196	18.4386	744.1443	-61.7141	275.0547	49.3404	719.0588	-0.0592	0.0182	-0.0073	-0.0462	0.0165	0.9585
5.0556	4.456	1.8606	-2.5644	-0.79195	4.6488	1.5791	20.0443	732.256	-61.9746	270.0967	48.7804	705.2634	-0.0592	0.0182	-0.0073	-0.0462	0.0165	0.9585
5.0686	7.3231	16.1005	-4.5042	-5.9947	7.8604	17.2673	21.4239	721.1007	-62.1122	265.3933	48.2409	692.5914	-0.0592	0.0182	-0.0073	-0.0462	0.0165	0.9585
5.0815	10.5108	38.8826	-6.8865	-14.281	11.6772	42.4177	22.5534	710.4358	-62.0483	260.8803	47.6512	680.8071	-0.0592	0.0182	-0.0073	-0.0462	0.0165	0.9585
5.0944	13.473	71.5935	-9.4651	-26.1317	15.6182	78.5829	23.3553	699.1893	-61.6718	256.1837	46.932	668.8957	-0.0592	0.0182	-0.0073	-0.0462	0.0165	0.9585
5.1074	15.2297	114.1834	-11.7285	-41.5016	18.7559	125.7523	23.7098	685.685	-60.8347	250.7008	45.9855	655.2789	-0.0592	0.0182	-0.0073	-0.0462	0.0165	0.9585
5.1203	14.4206	164.1685	-12.8336	-59.4527	19.6661	181.2302	23.5152	668.0313	-59.3843	243.7462	44.713	638.1575	-0.0592	0.0182	-0.0073	-0.0462	0.0165	0.9585
5.1332	10.2925	216.2098	-11.7047	-78.0011	16.8875	239.1303	22.6768	644.6589	-57.1883	234.7546	43.0331	616.0196	-0.0592	0.0182	-0.0073	-0.0462	0.0165	0.9585
5.1461	4.1182	263.8306	-7.331	-94.7751	9.8022	292.1703	21.2292	614.887	-54.225	223.4897	40.9234	588.1344	-0.0592	0.0182	-0.0073	-0.0462	0.0165	0.9585
5.1591	-2.3648	303.9048	-0.3996	-108.6773	-0.18022	336.5826	19.3613	579.2656	-50.6379	210.1572	38.4536	554.8891	-0.0592	0.0182	-0.0073	-0.0462	0.0165	0.9585
5.172	-8.0861	337.2599	7.9075	-120.0603	-11.3529	373.0621	17.3566	539.1927	-46.72	195.2713	35.7788	517.4405	-0.0592	0.0182	-0.0073	-0.0462	0.0165	0.9585
5.1849	-12.5972	366.5065	16.575	-129.9331	-22.4116	404.4613	15.5373	496.3001	-42.7343	179.4306	33.0101	477.1785	-0.0592	0.0182	-0.0073	-0.0462	0.0165	0.9585
5.1979	-15.8076	394.3018	24.701	-139.324	-32.3332	433.7133	14.1005	451.9539	-38.7567	163.1382	30.1304	435.3132	-0.0592	0.0182	-0.0073	-0.0462	0.0165	0.9585
5.2108	-17.8504	422.4275	31.7061	-148.931	-40.5265	462.8186	13.0739	407.0262	-34.7154	146.7211	27.047	392.6524	-0.0592	0.0182	-0.0073	-0.0462	0.0165	0.9585
5.2237	-18.7611	451.6486	37.2125	-159.0694	-46.6161	492.5687	12.3708	362.0769	-30.4803	130.3839	23.6612	349.7567	-0.0592	0.0182	-0.0073	-0.0462	0.0165	0.9585
5.2366	-18.6659	482.1195	41.255	-169.7947	-50.6975	523.1651	11.7991	317.5244	-26.019	114.2697	19.9934	307.0804	-0.0592	0.0182	-0.0073	-0.0462	0.0165	0.9585
5.2496	-17.6429	513.7377	44.078	-181.0445	-53.09	554.5219	11.1229	273.785	-21.4333	98.5127	16.1985	265.0667	-0.0592	0.0182	-0.0073	-0.0462	0.0165	0.9585
5.2625	-15.7952	546.3497	46.1842	-192.7153	-54.3848	586.5441	10.0992	231.444	-16.9458	83.2953	12.5493	224.3423	-0.0592	0.0182	-0.0073	-0.0462	0.0165	0.9585
5.2754	-13.3743	579.6977	48.0275	-204.6667	-55.1722	619.0312	8.5966	191.2312	-12.8026	68.8564	9.3144	185.6393	-0.0592	0.0182	-0.0073	-0.0462	0.0165	0.9585
5.2884	-10.7326	613.4399	50.0833	-216.7366	-56.0838	651.6852	6.5786	154.0294	-9.2171	55.4922	6.7117	149.8301	-0.0592	0.0182	-0.0073	-0.0462	0.0165	0.9585
5.3013	-8.2547	647.3094	52.5221	-228.8011	-57.4418	684.3047	4.2097	120.7393	-6.3126	43.5148	4.8181	117.7646	-0.0592	0.0182	-0.0073	-0.0462	0.0165	0.9585
5.3142	-6.1204	680.9053	55.3673	-240.7092	-59.3346	716.5013	1.7467	92.0578	-4.1214	33.1725	3.5936	90.1027	-0.0592	0.0182	-0.0073	-0.0462	0.0165	0.9585
5.3271	-4.4065	713.5606	58.3635	-252.2289	-61.5244	747.6141	-0.53068	68.2486	-2.571	24.5682	2.8896	67.0845	-0.0592	0.0182	-0.0073	-0.0462	0.0165	0.9585
5.3401	-3.0475	744.12	61.2922	-262.9667	-63.7569	776.4365	-2.4089	49.1212	-1.5399	17.6453	2.5306	48.525	-0.0592	0.0182	-0.0073	-0.0462	0.0165	0.9585
5.353	-1.9848	771.1332	63.9159	-272.4235	-65.7629	801.4892	-3.7837	34.1885	-0.88058	12.2372	2.3487	33.9823	-0.0592	0.0182	-0.0073	-0.0462	0.0165	0.9585
5.3659	-1.1259	793.1637	66.1586	-280.104	-67.4202	821.3232	-4.5942	22.7947	-0.47268	8.1176	2.2158	22.8326	-0.0592	0.0182	-0.0073	-0.0462	0.0165	0.9585
5.3789	-0.36362	809.1237	67.9293	-285.6355	-68.5952	834.8353	-4.8586	14.311	-0.22196	5.0605	2.0469	14.5044	-0.0592	0.0182	-0.0073	-0.0462	0.0165	0.9585
5.3918	0.37754	818.4401	69.2357	-288.8255	-69.2626	841.4769	-4.5699	8.1663	-0.080331	2.859	1.7984	8.4452	-0.0592	0.0182	-0.0073	-0.0462	0.0165	0.9585
5.4047	1.1735	821.1719	70.0364	-289.7072	-69.3601	841.3401	-3.8671	3.9276	-0.013717	1.3512	1.4795	4.2446	-0.0592	0.0182	-0.0073	-0.0462	0.0165	0.9585
5.4176	2.0394	817.9703	70.3563	-288.5206	-68.9064	835.1414	-2.9874	1.2455	-0.0079644	0.40724	1.1529	1.5556	-0.0592	0.0182	-0.0073	-0.0462	0.0165	0.9585
5.4306	3.0332	809.9791	70.1697	-285.6809	-67.8663	824.0337	-2.1299	-0.21417	-0.033857	-0.09806	0.8622	0.067783	-0.0592	0.0182	-0.0073	-0.0462	0.0165	0.9585
5.4435	4.1633	798.6739	69.5441	-281.714	-66.3036	809.5261	-1.4183	-0.81795	-0.078628	-0.29779	0.63823	-0.56021	-0.0592	0.0182	-0.0073	-0.0462	0.0165	0.9585
5.4564	5.4542	785.6423	68.5168	-277.1817	-64.2576	793.2191	-0.8747	-0.88461	-0.12492	-0.30512	0.47545	-0.64957	-0.0592	0.0182	-0.0073	-0.0462	0.0165	0.9585
5.4694	6.8999	772.3598	67.2233	-272.5986	-61.8696	776.5982	-0.50673	-0.62441	-0.17041	-0.20016	0.37438	-0.39718	-0.0592	0.0182	-0.0073	-0.0462	0.0165	0.9585
